# xmcd database file
#
# Track frame offsets:
# 150
# 2222
# 19701
# 35251
# 52813
# 74477
# 94167
# 109603
# 126760
# 142310
# 161728
# 181819
# 202090
# 218970
# 229427
# 249137
# 263672
#
# Disc length: 3829 seconds
#
# Revision: 0
# Processed by: cddbd v1.5.1PL0 Copyright (c) Steve Scherf et al.
# Submitted via: CD-Runner 2005.00
#
DISCID=f00ef311
DTITLE=Fermin, Ann (Trigger Gospel) - Live - 20040619 - Chicago, IL
DYEAR=2004
DGENRE=Country
TTITLE0="Intro"
TTITLE1=Northern Lights
TTITLE2=Fate
TTITLE3=10 More Miles
TTITLE4=Cry
TTITLE5=Are You Gonna Miss Me Too
TTITLE6=My Town
TTITLE7=The Eyes Of You
TTITLE8=Blame Me
TTITLE9=Nowhere
TTITLE10=Glory
TTITLE11=White Birch
TTITLE12=Romance
TTITLE13=Perhaps, Perhaps, Perhaps [Osvaldo Farres - Joe Davis]
TTITLE14=Doen The Road
TTITLE15=Viva Las Vegas  [Doc Pomus - Mort Shuman > Elvis Presley]
TTITLE16=Sedentary Blues
EXTD=Recorded live at Lincoln Park Fest - Chicago, IL on June 19, 2004.\n\nSoundboard recording.
EXTT0=
EXTT1=
EXTT2=
EXTT3=
EXTT4=
EXTT5=
EXTT6=
EXTT7=
EXTT8=
EXTT9=
EXTT10=
EXTT11=
EXTT12=
EXTT13=
EXTT14=
EXTT15=
EXTT16=
PLAYORDER=
